<?xml version="1.0" encoding="utf-8"?>
<!-- Generator: Adobe Illustrator 21.1.0, SVG Export Plug-In . SVG Version: 6.00 Build 0)  -->
<svg version="1.1" id="Layer_1" xmlns="http://www.w3.org/2000/svg" xmlns:xlink="http://www.w3.org/1999/xlink" x="0px" y="0px"
	 viewBox="0 0 64 64" style="enable-background:new 0 0 64 64;" xml:space="preserve">
<style type="text/css">
	.st0{fill:#57CEF3;}
	.st1{fill:#0779E4;}
	.st2{fill-rule:evenodd;clip-rule:evenodd;fill:#314A52;}
</style>
<g id="Puzzle-Piece">
	<path class="st0" d="M34,12c0,0.9-0.8,3.9-1.4,6H46c0,21.6,0,15.6,0,40H32V46h-8v12H6V40h12v-8H6V18h17.2c-0.6-1.7-1.2-4.1-1.2-6
		c0-3.3,2.7-6,6-6C31.3,6,34,8.7,34,12z"/>
	<path class="st1" d="M10,16c-3.3,0-6,2.7-6,6v12h2c1.5,0,2.6-0.7,3.3-1.1c0.1-0.1,0.2-0.1,0.2-0.1c0.7-0.4,1.3-0.7,2.5-0.7
		c2.2,0,4,1.8,4,4c0,2.3-1.6,4-4,4c-1.3,0-2.1-0.3-2.7-0.7c-0.1,0-0.2-0.1-0.3-0.2c-0.3-0.2-0.7-0.4-0.9-0.5C7.5,38.3,6.8,38,6,38H4
		v16c0,3.3,2.7,6,6,6h16v-2c0-0.8-0.3-1.5-0.5-2c-0.1-0.3-0.4-0.6-0.5-0.9c-0.1-0.1-0.2-0.3-0.2-0.4C24.3,54,24,53.2,24,52v0
		c0-2.2,1.8-4,4-4c2.3,0,4,1.6,4,4c0,1.3-0.4,2.1-0.7,2.8c0,0.1-0.1,0.2-0.2,0.3c-0.2,0.3-0.4,0.7-0.5,0.9c-0.3,0.5-0.5,1.2-0.5,2v2
		h4v-2c0,0,0,0,0,0h12V40l2,1h9v-9H44c0,6.4-3.6,12.1-9.2,15.7c-1.4-2.3-4-3.7-6.8-3.7c-4.4,0-8,3.6-8,8c-6.6,0-12-1.8-12-4v-4.9
		c1,0.5,2.3,0.9,4,0.9c4.6,0,8-3.6,8-8c0-4.4-3.6-8-8-8c-1.8,0-3,0.5-4,1v-7c0-1.1,0.9-2,2-2h14v-4H10z"/>
	<path class="st2" d="M28,8c-2.3,0-4,1.6-4,4c0,1.3,0.3,2.1,0.7,2.7c0,0.1,0.1,0.2,0.2,0.3c0.2,0.3,0.4,0.7,0.5,0.9
		c0.3,0.5,0.5,1.2,0.5,2v2h-4v-2c0,0,0-0.1-0.1-0.2c-0.1-0.2-0.2-0.3-0.3-0.5c-0.1-0.1-0.2-0.3-0.4-0.6C20.7,15.6,20,14.2,20,12
		c0-4.6,3.6-8,8-8c4.4,0,8,3.6,8,8c0,1.7-0.4,3-0.9,4H42c3.3,0,6,2.7,6,6v6.9c1-0.5,2.3-0.9,4-0.9c4.4,0,8,3.6,8,8c0,4.4-3.4,8-8,8
		c-1.7,0-3-0.4-4-0.9V54c0,3.3-2.7,6-6,6h-8v-2l1-2h7c1.1,0,2-0.9,2-2V38h2c0.8,0,1.5,0.3,2,0.5c0.2,0.1,0.6,0.3,0.9,0.5
		c0.1,0.1,0.3,0.2,0.3,0.2c0.7,0.4,1.5,0.7,2.8,0.7c2.4,0,4-1.7,4-4c0-2.2-1.8-4-4-4c-1.2,0-2,0.3-2.7,0.7c-0.1,0.1-0.2,0.1-0.4,0.2
		c-0.3,0.2-0.7,0.4-0.9,0.5c-0.5,0.2-1.2,0.5-2,0.5h-2V22c0-1.1-0.9-2-2-2H30v-2c0-0.8,0.3-1.5,0.5-2c0.1-0.3,0.4-0.6,0.5-0.9
		c0.1-0.1,0.2-0.3,0.2-0.4C31.7,14,32,13.2,32,12C32,9.8,30.2,8,28,8z"/>
</g>
</svg>
