<?xml version="1.0" encoding="utf-8"?>
<!-- Generator: Adobe Illustrator 16.0.0, SVG Export Plug-In . SVG Version: 6.00 Build 0)  -->
<!DOCTYPE svg PUBLIC "-//W3C//DTD SVG 1.1//EN" "http://www.w3.org/Graphics/SVG/1.1/DTD/svg11.dtd">
<svg version="1.1" id="Layer_1" xmlns="http://www.w3.org/2000/svg" xmlns:xlink="http://www.w3.org/1999/xlink" x="0px" y="0px"
	 width="128px" height="128px" viewBox="0 0 128 128" enable-background="new 0 0 128 128" xml:space="preserve">
<g>
	<g>
		<g>
			<path fill="#282D33" d="M80.139,103.801H47.715V55.703H30.227V23.282h67.4v32.421H80.139V103.801z M51.715,99.801h24.424V51.703
				h17.488V27.282h-59.4v24.421h17.488V99.801z"/>
		</g>
		<g>
			<g>
				<rect y="23.279" fill="#282D33" width="5.362" height="4"/>
			</g>
			<g>
				<rect x="9.901" y="23.279" fill="#282D33" width="5.363" height="4"/>
			</g>
			<g>
				<rect x="19.799" y="23.279" fill="#282D33" width="5.364" height="4"/>
			</g>
		</g>
		<g>
			<g>
				<rect x="102.838" y="23.279" fill="#282D33" width="5.363" height="4"/>
			</g>
			<g>
				<rect x="112.736" y="23.279" fill="#282D33" width="5.363" height="4"/>
			</g>
			<g>
				<rect x="122.637" y="23.279" fill="#282D33" width="5.363" height="4"/>
			</g>
		</g>
		<g>
			<g>
				<rect x="76.139" y="3.551" fill="#282D33" width="4" height="5.363"/>
			</g>
			<g>
				<rect x="76.139" y="13.452" fill="#282D33" width="4" height="5.364"/>
			</g>
		</g>
		<g>
			<g>
				<rect x="47.715" y="3.551" fill="#282D33" width="4" height="5.363"/>
			</g>
			<g>
				<rect x="47.715" y="13.452" fill="#282D33" width="4" height="5.364"/>
			</g>
		</g>
		<g>
			<g>
				<rect x="76.139" y="109.186" fill="#282D33" width="4" height="5.365"/>
			</g>
			<g>
				<rect x="76.139" y="119.086" fill="#282D33" width="4" height="5.363"/>
			</g>
		</g>
		<g>
			<g>
				<rect x="47.715" y="109.186" fill="#282D33" width="4" height="5.365"/>
			</g>
			<g>
				<rect x="47.715" y="119.086" fill="#282D33" width="4" height="5.363"/>
			</g>
		</g>
		<g>
			<g>
				<rect y="51.703" fill="#282D33" width="5.362" height="4"/>
			</g>
			<g>
				<rect x="9.901" y="51.703" fill="#282D33" width="5.363" height="4"/>
			</g>
			<g>
				<rect x="19.799" y="51.703" fill="#282D33" width="5.364" height="4"/>
			</g>
		</g>
		<g>
			<g>
				<rect x="102.838" y="51.703" fill="#282D33" width="5.363" height="4"/>
			</g>
			<g>
				<rect x="112.736" y="51.703" fill="#282D33" width="5.363" height="4"/>
			</g>
			<g>
				<rect x="122.637" y="51.703" fill="#282D33" width="5.363" height="4"/>
			</g>
		</g>
	</g>
</g>
</svg>
